<?xml version="1.0" encoding="utf-8"?>
<!-- Generator: Adobe Illustrator 24.0.1, SVG Export Plug-In . SVG Version: 6.00 Build 0)  -->
<svg version="1.1" id="Layer_1" xmlns="http://www.w3.org/2000/svg" xmlns:xlink="http://www.w3.org/1999/xlink" x="0px" y="0px"
	 viewBox="0 0 292.78 206.82" style="enable-background:new 0 0 292.78 206.82;" xml:space="preserve">
<style type="text/css">
	.st0{fill:#FF8500;}
	.st1{fill:#0A83B2;}
</style>
<path class="st0" d="M0.14,121.62c0-51.97-5.76-86.01,57.03-99.03C99.84,13.74,124.93,4.63,146.39,0c0,88.6-13.62,92.76-64.3,98.53
	C47.56,102.46,8.84,98.59,0.14,121.62z"/>
<path class="st1" d="M0.14,85.2c0,51.97-5.76,86.01,57.03,99.03c42.67,8.85,67.76,17.95,89.22,22.59c0-88.6-13.62-92.76-64.3-98.53
	C47.56,104.35,8.84,108.22,0.14,85.2z"/>
<path class="st0" d="M292.64,121.62c0-51.97,5.76-86.01-57.03-99.03C192.94,13.74,167.85,4.63,146.39,0
	c0,88.6,13.62,92.76,64.3,98.53C245.22,102.46,283.93,98.59,292.64,121.62z"/>
<path class="st1" d="M292.64,85.2c0,51.97,5.76,86.01-57.03,99.03c-42.67,8.85-67.76,17.95-89.22,22.59
	c0-88.6,13.62-92.76,64.3-98.53C245.22,104.35,283.93,108.22,292.64,85.2z"/>
</svg>
